<?xml version="1.0" standalone="no"?>
<!DOCTYPE svg PUBLIC "-//W3C//DTD SVG 20010904//EN"
 "http://www.w3.org/TR/2001/REC-SVG-20010904/DTD/svg10.dtd">
<svg version="1.0" xmlns="http://www.w3.org/2000/svg"
 width="220.000000pt" height="220.000000pt" viewBox="0 0 220.000000 220.000000"
 preserveAspectRatio="xMidYMid meet">
<metadata>
Created by potrace 1.14, written by Peter Selinger 2001-2017
</metadata>
<g transform="translate(0.000000,220.000000) scale(0.100000,-0.100000)"
fill="#000000" stroke="none">
<path d="M828 1945 c-2 -2 -23 -5 -48 -9 -330 -42 -604 -270 -700 -581 -29
-97 -35 -135 -33 -250 3 -273 137 -519 364 -671 37 -24 72 -44 78 -44 6 0 11
-4 11 -9 0 -5 15 -13 33 -16 17 -4 37 -11 42 -15 20 -15 144 -49 207 -56 220
-24 418 23 597 141 73 48 88 62 77 73 -8 8 -76 -28 -76 -40 0 -4 -6 -8 -14 -8
-8 0 -16 -4 -18 -8 -4 -11 -171 -92 -189 -92 -9 0 -19 -3 -23 -7 -3 -4 -12 -8
-19 -9 -7 -1 -28 -5 -47 -9 -19 -4 -53 -8 -75 -10 -22 -2 -41 -5 -42 -5 -4 -2
-92 -2 -95 -1 -2 1 -32 4 -68 6 -119 8 -261 63 -385 151 -164 116 -293 321
-321 510 -9 60 -9 195 0 249 10 66 11 69 19 83 5 6 6 12 3 12 -8 0 23 81 56
145 89 172 256 320 439 388 47 18 69 24 124 33 17 3 48 9 70 13 49 9 179 6
231 -4 22 -5 42 -8 46 -7 27 6 278 -103 278 -120 0 -4 7 -8 15 -8 8 0 15 -4
15 -10 0 -5 5 -10 11 -10 6 0 17 -7 25 -15 16 -16 44 -20 44 -7 0 39 -254 174
-370 197 -77 15 -253 28 -262 20z"/>
<path d="M1848 1615 c-94 -24 -177 -116 -205 -229 -12 -48 -14 -217 -4 -265
16 -74 59 -157 100 -193 98 -86 244 -93 356 -17 19 13 35 29 35 34 0 6 -12 24
-26 41 l-26 32 -50 -26 c-113 -58 -203 -16 -240 113 -17 61 -14 231 5 294 18
59 73 120 111 122 54 3 80 -1 119 -21 l41 -22 32 35 33 35 -22 20 c-58 52
-164 72 -259 47z"/>
<path d="M677 1605 c-2 -5 -3 -172 -3 -370 l1 -360 68 0 c53 -1 67 2 68 15 1
8 2 74 4 145 1 72 3 135 3 140 1 7 40 11 100 10 l97 0 0 50 0 50 -90 1 c-49 1
-95 2 -101 3 -11 1 -14 205 -2 216 4 4 58 8 120 9 68 0 113 5 112 11 0 6 3 27
6 48 5 24 4 37 -4 37 -145 6 -376 3 -379 -5z"/>
<path d="M1264 1601 c-73 -12 -171 -83 -158 -115 3 -6 19 -21 37 -34 31 -21
32 -22 47 -3 52 65 158 71 190 11 18 -33 14 -104 -8 -153 -28 -64 -66 -115
-169 -233 -77 -89 -89 -107 -91 -142 -2 -24 2 -44 10 -49 17 -10 378 -12 399
-1 12 5 16 20 15 50 l-1 43 -132 0 c-83 0 -133 4 -133 10 0 5 24 35 53 66 146
155 193 232 203 326 8 74 -7 124 -49 165 -54 51 -130 72 -213 59z"/>
</g>
</svg>
